<?xml version="1.0" encoding="utf-8" standalone="no"?>
<!DOCTYPE svg PUBLIC "-//W3C//DTD SVG 1.1//EN"
  "http://www.w3.org/Graphics/SVG/1.1/DTD/svg11.dtd">
<svg xmlns:xlink="http://www.w3.org/1999/xlink" width="664.255pt" height="377.3125pt" viewBox="0 0 664.255 377.3125" xmlns="http://www.w3.org/2000/svg" version="1.1">
 <metadata>
  <rdf:RDF xmlns:dc="http://purl.org/dc/elements/1.1/" xmlns:cc="http://creativecommons.org/ns#" xmlns:rdf="http://www.w3.org/1999/02/22-rdf-syntax-ns#">
   <cc:Work>
    <dc:type rdf:resource="http://purl.org/dc/dcmitype/StillImage"/>
    <dc:date>2025-11-19T13:49:10.292055</dc:date>
    <dc:format>image/svg+xml</dc:format>
    <dc:creator>
     <cc:Agent>
      <dc:title>Matplotlib v3.10.7, https://matplotlib.org/</dc:title>
     </cc:Agent>
    </dc:creator>
   </cc:Work>
  </rdf:RDF>
 </metadata>
 <defs>
  <style type="text/css">*{stroke-linejoin: round; stroke-linecap: butt}</style>
 </defs>
 <g id="figure_1">
  <g id="patch_1">
   <path d="M 0 377.3125 
L 664.255 377.3125 
L 664.255 0 
L 0 0 
L 0 377.3125 
z
" style="fill: none; opacity: 0"/>
  </g>
  <g id="axes_1">
   <g id="patch_2">
    <path d="M 59.455 322.56 
L 657.055 322.56 
L 657.055 7.2 
L 59.455 7.2 
L 59.455 322.56 
z
" style="fill: none; opacity: 0"/>
   </g>
   <g id="matplotlib.axis_1">
    <g id="xtick_1">
     <g id="line2d_1">
      <defs>
       <path id="m84cef8f3a6" d="M 0 0 
L 0 3.5 
" style="stroke: #000000; stroke-width: 0.8"/>
      </defs>
      <g>
       <use xlink:href="#m84cef8f3a6" x="86.618636" y="322.56" style="stroke: #000000; stroke-width: 0.8"/>
      </g>
     </g>
     <g id="text_1">
      <!-- 0 -->
      <g transform="translate(82.169886 341.0125) scale(0.16 -0.16)">
       <defs>
        <path id="ArialMT-30" d="M 266 2259 
Q 266 3072 433 3567 
Q 600 4063 929 4331 
Q 1259 4600 1759 4600 
Q 2128 4600 2406 4451 
Q 2684 4303 2865 4023 
Q 3047 3744 3150 3342 
Q 3253 2941 3253 2259 
Q 3253 1453 3087 958 
Q 2922 463 2592 192 
Q 2263 -78 1759 -78 
Q 1097 -78 719 397 
Q 266 969 266 2259 
z
M 844 2259 
Q 844 1131 1108 757 
Q 1372 384 1759 384 
Q 2147 384 2411 759 
Q 2675 1134 2675 2259 
Q 2675 3391 2411 3762 
Q 2147 4134 1753 4134 
Q 1366 4134 1134 3806 
Q 844 3388 844 2259 
z
" transform="scale(0.015625)"/>
       </defs>
       <use xlink:href="#ArialMT-30"/>
      </g>
     </g>
    </g>
    <g id="xtick_2">
     <g id="line2d_2">
      <g>
       <use xlink:href="#m84cef8f3a6" x="158.987456" y="322.56" style="stroke: #000000; stroke-width: 0.8"/>
      </g>
     </g>
     <g id="text_2">
      <!-- 20 -->
      <g transform="translate(150.089956 341.0125) scale(0.16 -0.16)">
       <defs>
        <path id="ArialMT-32" d="M 3222 541 
L 3222 0 
L 194 0 
Q 188 203 259 391 
Q 375 700 629 1000 
Q 884 1300 1366 1694 
Q 2113 2306 2375 2664 
Q 2638 3022 2638 3341 
Q 2638 3675 2398 3904 
Q 2159 4134 1775 4134 
Q 1369 4134 1125 3890 
Q 881 3647 878 3216 
L 300 3275 
Q 359 3922 746 4261 
Q 1134 4600 1788 4600 
Q 2447 4600 2831 4234 
Q 3216 3869 3216 3328 
Q 3216 3053 3103 2787 
Q 2991 2522 2730 2228 
Q 2469 1934 1863 1422 
Q 1356 997 1212 845 
Q 1069 694 975 541 
L 3222 541 
z
" transform="scale(0.015625)"/>
       </defs>
       <use xlink:href="#ArialMT-32"/>
       <use xlink:href="#ArialMT-30" transform="translate(55.615234 0)"/>
      </g>
     </g>
    </g>
    <g id="xtick_3">
     <g id="line2d_3">
      <g>
       <use xlink:href="#m84cef8f3a6" x="231.356275" y="322.56" style="stroke: #000000; stroke-width: 0.8"/>
      </g>
     </g>
     <g id="text_3">
      <!-- 40 -->
      <g transform="translate(222.458775 341.0125) scale(0.16 -0.16)">
       <defs>
        <path id="ArialMT-34" d="M 2069 0 
L 2069 1097 
L 81 1097 
L 81 1613 
L 2172 4581 
L 2631 4581 
L 2631 1613 
L 3250 1613 
L 3250 1097 
L 2631 1097 
L 2631 0 
L 2069 0 
z
M 2069 1613 
L 2069 3678 
L 634 1613 
L 2069 1613 
z
" transform="scale(0.015625)"/>
       </defs>
       <use xlink:href="#ArialMT-34"/>
       <use xlink:href="#ArialMT-30" transform="translate(55.615234 0)"/>
      </g>
     </g>
    </g>
    <g id="xtick_4">
     <g id="line2d_4">
      <g>
       <use xlink:href="#m84cef8f3a6" x="303.725095" y="322.56" style="stroke: #000000; stroke-width: 0.8"/>
      </g>
     </g>
     <g id="text_4">
      <!-- 60 -->
      <g transform="translate(294.827595 341.0125) scale(0.16 -0.16)">
       <defs>
        <path id="ArialMT-36" d="M 3184 3459 
L 2625 3416 
Q 2550 3747 2413 3897 
Q 2184 4138 1850 4138 
Q 1581 4138 1378 3988 
Q 1113 3794 959 3422 
Q 806 3050 800 2363 
Q 1003 2672 1297 2822 
Q 1591 2972 1913 2972 
Q 2475 2972 2870 2558 
Q 3266 2144 3266 1488 
Q 3266 1056 3080 686 
Q 2894 316 2569 119 
Q 2244 -78 1831 -78 
Q 1128 -78 684 439 
Q 241 956 241 2144 
Q 241 3472 731 4075 
Q 1159 4600 1884 4600 
Q 2425 4600 2770 4297 
Q 3116 3994 3184 3459 
z
M 888 1484 
Q 888 1194 1011 928 
Q 1134 663 1356 523 
Q 1578 384 1822 384 
Q 2178 384 2434 671 
Q 2691 959 2691 1453 
Q 2691 1928 2437 2201 
Q 2184 2475 1800 2475 
Q 1419 2475 1153 2201 
Q 888 1928 888 1484 
z
" transform="scale(0.015625)"/>
       </defs>
       <use xlink:href="#ArialMT-36"/>
       <use xlink:href="#ArialMT-30" transform="translate(55.615234 0)"/>
      </g>
     </g>
    </g>
    <g id="xtick_5">
     <g id="line2d_5">
      <g>
       <use xlink:href="#m84cef8f3a6" x="376.093914" y="322.56" style="stroke: #000000; stroke-width: 0.8"/>
      </g>
     </g>
     <g id="text_5">
      <!-- 80 -->
      <g transform="translate(367.196414 341.0125) scale(0.16 -0.16)">
       <defs>
        <path id="ArialMT-38" d="M 1131 2484 
Q 781 2613 612 2850 
Q 444 3088 444 3419 
Q 444 3919 803 4259 
Q 1163 4600 1759 4600 
Q 2359 4600 2725 4251 
Q 3091 3903 3091 3403 
Q 3091 3084 2923 2848 
Q 2756 2613 2416 2484 
Q 2838 2347 3058 2040 
Q 3278 1734 3278 1309 
Q 3278 722 2862 322 
Q 2447 -78 1769 -78 
Q 1091 -78 675 323 
Q 259 725 259 1325 
Q 259 1772 486 2073 
Q 713 2375 1131 2484 
z
M 1019 3438 
Q 1019 3113 1228 2906 
Q 1438 2700 1772 2700 
Q 2097 2700 2305 2904 
Q 2513 3109 2513 3406 
Q 2513 3716 2298 3927 
Q 2084 4138 1766 4138 
Q 1444 4138 1231 3931 
Q 1019 3725 1019 3438 
z
M 838 1322 
Q 838 1081 952 856 
Q 1066 631 1291 507 
Q 1516 384 1775 384 
Q 2178 384 2440 643 
Q 2703 903 2703 1303 
Q 2703 1709 2433 1975 
Q 2163 2241 1756 2241 
Q 1359 2241 1098 1978 
Q 838 1716 838 1322 
z
" transform="scale(0.015625)"/>
       </defs>
       <use xlink:href="#ArialMT-38"/>
       <use xlink:href="#ArialMT-30" transform="translate(55.615234 0)"/>
      </g>
     </g>
    </g>
    <g id="xtick_6">
     <g id="line2d_6">
      <g>
       <use xlink:href="#m84cef8f3a6" x="448.462733" y="322.56" style="stroke: #000000; stroke-width: 0.8"/>
      </g>
     </g>
     <g id="text_6">
      <!-- 100 -->
      <g transform="translate(435.116483 341.0125) scale(0.16 -0.16)">
       <defs>
        <path id="ArialMT-31" d="M 2384 0 
L 1822 0 
L 1822 3584 
Q 1619 3391 1289 3197 
Q 959 3003 697 2906 
L 697 3450 
Q 1169 3672 1522 3987 
Q 1875 4303 2022 4600 
L 2384 4600 
L 2384 0 
z
" transform="scale(0.015625)"/>
       </defs>
       <use xlink:href="#ArialMT-31"/>
       <use xlink:href="#ArialMT-30" transform="translate(55.615234 0)"/>
       <use xlink:href="#ArialMT-30" transform="translate(111.230469 0)"/>
      </g>
     </g>
    </g>
    <g id="xtick_7">
     <g id="line2d_7">
      <g>
       <use xlink:href="#m84cef8f3a6" x="520.831553" y="322.56" style="stroke: #000000; stroke-width: 0.8"/>
      </g>
     </g>
     <g id="text_7">
      <!-- 120 -->
      <g transform="translate(507.485303 341.0125) scale(0.16 -0.16)">
       <use xlink:href="#ArialMT-31"/>
       <use xlink:href="#ArialMT-32" transform="translate(55.615234 0)"/>
       <use xlink:href="#ArialMT-30" transform="translate(111.230469 0)"/>
      </g>
     </g>
    </g>
    <g id="xtick_8">
     <g id="line2d_8">
      <g>
       <use xlink:href="#m84cef8f3a6" x="593.200372" y="322.56" style="stroke: #000000; stroke-width: 0.8"/>
      </g>
     </g>
     <g id="text_8">
      <!-- 140 -->
      <g transform="translate(579.854122 341.0125) scale(0.16 -0.16)">
       <use xlink:href="#ArialMT-31"/>
       <use xlink:href="#ArialMT-34" transform="translate(55.615234 0)"/>
       <use xlink:href="#ArialMT-30" transform="translate(111.230469 0)"/>
      </g>
     </g>
    </g>
    <g id="text_9">
     <!-- Specific Capacity (mAh g$^{-1}$) -->
     <g transform="translate(257.615 366.5925) scale(0.16 -0.16)">
      <defs>
       <path id="ArialMT-53" d="M 288 1472 
L 859 1522 
Q 900 1178 1048 958 
Q 1197 738 1509 602 
Q 1822 466 2213 466 
Q 2559 466 2825 569 
Q 3091 672 3220 851 
Q 3350 1031 3350 1244 
Q 3350 1459 3225 1620 
Q 3100 1781 2813 1891 
Q 2628 1963 1997 2114 
Q 1366 2266 1113 2400 
Q 784 2572 623 2826 
Q 463 3081 463 3397 
Q 463 3744 659 4045 
Q 856 4347 1234 4503 
Q 1613 4659 2075 4659 
Q 2584 4659 2973 4495 
Q 3363 4331 3572 4012 
Q 3781 3694 3797 3291 
L 3216 3247 
Q 3169 3681 2898 3903 
Q 2628 4125 2100 4125 
Q 1550 4125 1298 3923 
Q 1047 3722 1047 3438 
Q 1047 3191 1225 3031 
Q 1400 2872 2139 2705 
Q 2878 2538 3153 2413 
Q 3553 2228 3743 1945 
Q 3934 1663 3934 1294 
Q 3934 928 3725 604 
Q 3516 281 3123 101 
Q 2731 -78 2241 -78 
Q 1619 -78 1198 103 
Q 778 284 539 648 
Q 300 1013 288 1472 
z
" transform="scale(0.015625)"/>
       <path id="ArialMT-70" d="M 422 -1272 
L 422 3319 
L 934 3319 
L 934 2888 
Q 1116 3141 1344 3267 
Q 1572 3394 1897 3394 
Q 2322 3394 2647 3175 
Q 2972 2956 3137 2557 
Q 3303 2159 3303 1684 
Q 3303 1175 3120 767 
Q 2938 359 2589 142 
Q 2241 -75 1856 -75 
Q 1575 -75 1351 44 
Q 1128 163 984 344 
L 984 -1272 
L 422 -1272 
z
M 931 1641 
Q 931 1000 1190 694 
Q 1450 388 1819 388 
Q 2194 388 2461 705 
Q 2728 1022 2728 1688 
Q 2728 2322 2467 2637 
Q 2206 2953 1844 2953 
Q 1484 2953 1207 2617 
Q 931 2281 931 1641 
z
" transform="scale(0.015625)"/>
       <path id="ArialMT-65" d="M 2694 1069 
L 3275 997 
Q 3138 488 2766 206 
Q 2394 -75 1816 -75 
Q 1088 -75 661 373 
Q 234 822 234 1631 
Q 234 2469 665 2931 
Q 1097 3394 1784 3394 
Q 2450 3394 2872 2941 
Q 3294 2488 3294 1666 
Q 3294 1616 3291 1516 
L 816 1516 
Q 847 969 1125 678 
Q 1403 388 1819 388 
Q 2128 388 2347 550 
Q 2566 713 2694 1069 
z
M 847 1978 
L 2700 1978 
Q 2663 2397 2488 2606 
Q 2219 2931 1791 2931 
Q 1403 2931 1139 2672 
Q 875 2413 847 1978 
z
" transform="scale(0.015625)"/>
       <path id="ArialMT-63" d="M 2588 1216 
L 3141 1144 
Q 3050 572 2676 248 
Q 2303 -75 1759 -75 
Q 1078 -75 664 370 
Q 250 816 250 1647 
Q 250 2184 428 2587 
Q 606 2991 970 3192 
Q 1334 3394 1763 3394 
Q 2303 3394 2647 3120 
Q 2991 2847 3088 2344 
L 2541 2259 
Q 2463 2594 2264 2762 
Q 2066 2931 1784 2931 
Q 1359 2931 1093 2626 
Q 828 2322 828 1663 
Q 828 994 1084 691 
Q 1341 388 1753 388 
Q 2084 388 2306 591 
Q 2528 794 2588 1216 
z
" transform="scale(0.015625)"/>
       <path id="ArialMT-69" d="M 425 3934 
L 425 4581 
L 988 4581 
L 988 3934 
L 425 3934 
z
M 425 0 
L 425 3319 
L 988 3319 
L 988 0 
L 425 0 
z
" transform="scale(0.015625)"/>
       <path id="ArialMT-66" d="M 556 0 
L 556 2881 
L 59 2881 
L 59 3319 
L 556 3319 
L 556 3672 
Q 556 4006 616 4169 
Q 697 4388 901 4523 
Q 1106 4659 1475 4659 
Q 1713 4659 2000 4603 
L 1916 4113 
Q 1741 4144 1584 4144 
Q 1328 4144 1222 4034 
Q 1116 3925 1116 3625 
L 1116 3319 
L 1763 3319 
L 1763 2881 
L 1116 2881 
L 1116 0 
L 556 0 
z
" transform="scale(0.015625)"/>
       <path id="ArialMT-20" transform="scale(0.015625)"/>
       <path id="ArialMT-43" d="M 3763 1606 
L 4369 1453 
Q 4178 706 3683 314 
Q 3188 -78 2472 -78 
Q 1731 -78 1267 223 
Q 803 525 561 1097 
Q 319 1669 319 2325 
Q 319 3041 592 3573 
Q 866 4106 1370 4382 
Q 1875 4659 2481 4659 
Q 3169 4659 3637 4309 
Q 4106 3959 4291 3325 
L 3694 3184 
Q 3534 3684 3231 3912 
Q 2928 4141 2469 4141 
Q 1941 4141 1586 3887 
Q 1231 3634 1087 3207 
Q 944 2781 944 2328 
Q 944 1744 1114 1308 
Q 1284 872 1643 656 
Q 2003 441 2422 441 
Q 2931 441 3284 734 
Q 3638 1028 3763 1606 
z
" transform="scale(0.015625)"/>
       <path id="ArialMT-61" d="M 2588 409 
Q 2275 144 1986 34 
Q 1697 -75 1366 -75 
Q 819 -75 525 192 
Q 231 459 231 875 
Q 231 1119 342 1320 
Q 453 1522 633 1644 
Q 813 1766 1038 1828 
Q 1203 1872 1538 1913 
Q 2219 1994 2541 2106 
Q 2544 2222 2544 2253 
Q 2544 2597 2384 2738 
Q 2169 2928 1744 2928 
Q 1347 2928 1158 2789 
Q 969 2650 878 2297 
L 328 2372 
Q 403 2725 575 2942 
Q 747 3159 1072 3276 
Q 1397 3394 1825 3394 
Q 2250 3394 2515 3294 
Q 2781 3194 2906 3042 
Q 3031 2891 3081 2659 
Q 3109 2516 3109 2141 
L 3109 1391 
Q 3109 606 3145 398 
Q 3181 191 3288 0 
L 2700 0 
Q 2613 175 2588 409 
z
M 2541 1666 
Q 2234 1541 1622 1453 
Q 1275 1403 1131 1340 
Q 988 1278 909 1158 
Q 831 1038 831 891 
Q 831 666 1001 516 
Q 1172 366 1500 366 
Q 1825 366 2078 508 
Q 2331 650 2450 897 
Q 2541 1088 2541 1459 
L 2541 1666 
z
" transform="scale(0.015625)"/>
       <path id="ArialMT-74" d="M 1650 503 
L 1731 6 
Q 1494 -44 1306 -44 
Q 1000 -44 831 53 
Q 663 150 594 308 
Q 525 466 525 972 
L 525 2881 
L 113 2881 
L 113 3319 
L 525 3319 
L 525 4141 
L 1084 4478 
L 1084 3319 
L 1650 3319 
L 1650 2881 
L 1084 2881 
L 1084 941 
Q 1084 700 1114 631 
Q 1144 563 1211 522 
Q 1278 481 1403 481 
Q 1497 481 1650 503 
z
" transform="scale(0.015625)"/>
       <path id="ArialMT-79" d="M 397 -1278 
L 334 -750 
Q 519 -800 656 -800 
Q 844 -800 956 -737 
Q 1069 -675 1141 -563 
Q 1194 -478 1313 -144 
Q 1328 -97 1363 -6 
L 103 3319 
L 709 3319 
L 1400 1397 
Q 1534 1031 1641 628 
Q 1738 1016 1872 1384 
L 2581 3319 
L 3144 3319 
L 1881 -56 
Q 1678 -603 1566 -809 
Q 1416 -1088 1222 -1217 
Q 1028 -1347 759 -1347 
Q 597 -1347 397 -1278 
z
" transform="scale(0.015625)"/>
       <path id="ArialMT-28" d="M 1497 -1347 
Q 1031 -759 709 28 
Q 388 816 388 1659 
Q 388 2403 628 3084 
Q 909 3875 1497 4659 
L 1900 4659 
Q 1522 4009 1400 3731 
Q 1209 3300 1100 2831 
Q 966 2247 966 1656 
Q 966 153 1900 -1347 
L 1497 -1347 
z
" transform="scale(0.015625)"/>
       <path id="ArialMT-6d" d="M 422 0 
L 422 3319 
L 925 3319 
L 925 2853 
Q 1081 3097 1340 3245 
Q 1600 3394 1931 3394 
Q 2300 3394 2536 3241 
Q 2772 3088 2869 2813 
Q 3263 3394 3894 3394 
Q 4388 3394 4653 3120 
Q 4919 2847 4919 2278 
L 4919 0 
L 4359 0 
L 4359 2091 
Q 4359 2428 4304 2576 
Q 4250 2725 4106 2815 
Q 3963 2906 3769 2906 
Q 3419 2906 3187 2673 
Q 2956 2441 2956 1928 
L 2956 0 
L 2394 0 
L 2394 2156 
Q 2394 2531 2256 2718 
Q 2119 2906 1806 2906 
Q 1569 2906 1367 2781 
Q 1166 2656 1075 2415 
Q 984 2175 984 1722 
L 984 0 
L 422 0 
z
" transform="scale(0.015625)"/>
       <path id="ArialMT-41" d="M -9 0 
L 1750 4581 
L 2403 4581 
L 4278 0 
L 3588 0 
L 3053 1388 
L 1138 1388 
L 634 0 
L -9 0 
z
M 1313 1881 
L 2866 1881 
L 2388 3150 
Q 2169 3728 2063 4100 
Q 1975 3659 1816 3225 
L 1313 1881 
z
" transform="scale(0.015625)"/>
       <path id="ArialMT-68" d="M 422 0 
L 422 4581 
L 984 4581 
L 984 2938 
Q 1378 3394 1978 3394 
Q 2347 3394 2619 3248 
Q 2891 3103 3008 2847 
Q 3125 2591 3125 2103 
L 3125 0 
L 2563 0 
L 2563 2103 
Q 2563 2525 2380 2717 
Q 2197 2909 1863 2909 
Q 1613 2909 1392 2779 
Q 1172 2650 1078 2428 
Q 984 2206 984 1816 
L 984 0 
L 422 0 
z
" transform="scale(0.015625)"/>
       <path id="ArialMT-67" d="M 319 -275 
L 866 -356 
Q 900 -609 1056 -725 
Q 1266 -881 1628 -881 
Q 2019 -881 2231 -725 
Q 2444 -569 2519 -288 
Q 2563 -116 2559 434 
Q 2191 0 1641 0 
Q 956 0 581 494 
Q 206 988 206 1678 
Q 206 2153 378 2554 
Q 550 2956 876 3175 
Q 1203 3394 1644 3394 
Q 2231 3394 2613 2919 
L 2613 3319 
L 3131 3319 
L 3131 450 
Q 3131 -325 2973 -648 
Q 2816 -972 2473 -1159 
Q 2131 -1347 1631 -1347 
Q 1038 -1347 672 -1080 
Q 306 -813 319 -275 
z
M 784 1719 
Q 784 1066 1043 766 
Q 1303 466 1694 466 
Q 2081 466 2343 764 
Q 2606 1063 2606 1700 
Q 2606 2309 2336 2618 
Q 2066 2928 1684 2928 
Q 1309 2928 1046 2623 
Q 784 2319 784 1719 
z
" transform="scale(0.015625)"/>
       <path id="DejaVuSans-2212" d="M 678 2272 
L 4684 2272 
L 4684 1741 
L 678 1741 
L 678 2272 
z
" transform="scale(0.015625)"/>
       <path id="DejaVuSans-31" d="M 794 531 
L 1825 531 
L 1825 4091 
L 703 3866 
L 703 4441 
L 1819 4666 
L 2450 4666 
L 2450 531 
L 3481 531 
L 3481 0 
L 794 0 
L 794 531 
z
" transform="scale(0.015625)"/>
       <path id="ArialMT-29" d="M 791 -1347 
L 388 -1347 
Q 1322 153 1322 1656 
Q 1322 2244 1188 2822 
Q 1081 3291 891 3722 
Q 769 4003 388 4659 
L 791 4659 
Q 1378 3875 1659 3084 
Q 1900 2403 1900 1659 
Q 1900 816 1576 28 
Q 1253 -759 791 -1347 
z
" transform="scale(0.015625)"/>
      </defs>
      <use xlink:href="#ArialMT-53" transform="translate(0 0.684375)"/>
      <use xlink:href="#ArialMT-70" transform="translate(66.699219 0.684375)"/>
      <use xlink:href="#ArialMT-65" transform="translate(122.314453 0.684375)"/>
      <use xlink:href="#ArialMT-63" transform="translate(177.929688 0.684375)"/>
      <use xlink:href="#ArialMT-69" transform="translate(227.929688 0.684375)"/>
      <use xlink:href="#ArialMT-66" transform="translate(250.146484 0.684375)"/>
      <use xlink:href="#ArialMT-69" transform="translate(277.929688 0.684375)"/>
      <use xlink:href="#ArialMT-63" transform="translate(300.146484 0.684375)"/>
      <use xlink:href="#ArialMT-20" transform="translate(350.146484 0.684375)"/>
      <use xlink:href="#ArialMT-43" transform="translate(377.929688 0.684375)"/>
      <use xlink:href="#ArialMT-61" transform="translate(450.146484 0.684375)"/>
      <use xlink:href="#ArialMT-70" transform="translate(505.761719 0.684375)"/>
      <use xlink:href="#ArialMT-61" transform="translate(561.376953 0.684375)"/>
      <use xlink:href="#ArialMT-63" transform="translate(616.992188 0.684375)"/>
      <use xlink:href="#ArialMT-69" transform="translate(666.992188 0.684375)"/>
      <use xlink:href="#ArialMT-74" transform="translate(689.208984 0.684375)"/>
      <use xlink:href="#ArialMT-79" transform="translate(716.992188 0.684375)"/>
      <use xlink:href="#ArialMT-20" transform="translate(766.992188 0.684375)"/>
      <use xlink:href="#ArialMT-28" transform="translate(794.775391 0.684375)"/>
      <use xlink:href="#ArialMT-6d" transform="translate(828.076172 0.684375)"/>
      <use xlink:href="#ArialMT-41" transform="translate(911.376953 0.684375)"/>
      <use xlink:href="#ArialMT-68" transform="translate(978.076172 0.684375)"/>
      <use xlink:href="#ArialMT-20" transform="translate(1033.691406 0.684375)"/>
      <use xlink:href="#ArialMT-67" transform="translate(1061.474609 0.684375)"/>
      <use xlink:href="#DejaVuSans-2212" transform="translate(1118.046875 38.965625) scale(0.7)"/>
      <use xlink:href="#DejaVuSans-31" transform="translate(1176.699219 38.965625) scale(0.7)"/>
      <use xlink:href="#ArialMT-29" transform="translate(1223.969727 0.684375)"/>
     </g>
    </g>
   </g>
   <g id="matplotlib.axis_2">
    <g id="ytick_1">
     <g id="line2d_9">
      <defs>
       <path id="md4b8649718" d="M 0 0 
L -3.5 0 
" style="stroke: #000000; stroke-width: 0.8"/>
      </defs>
      <g>
       <use xlink:href="#md4b8649718" x="59.455" y="308.225455" style="stroke: #000000; stroke-width: 0.8"/>
      </g>
     </g>
     <g id="text_10">
      <!-- 1.0 -->
      <g transform="translate(30.215 313.951705) scale(0.16 -0.16)">
       <defs>
        <path id="ArialMT-2e" d="M 581 0 
L 581 641 
L 1222 641 
L 1222 0 
L 581 0 
z
" transform="scale(0.015625)"/>
       </defs>
       <use xlink:href="#ArialMT-31"/>
       <use xlink:href="#ArialMT-2e" transform="translate(55.615234 0)"/>
       <use xlink:href="#ArialMT-30" transform="translate(83.398438 0)"/>
      </g>
     </g>
    </g>
    <g id="ytick_2">
     <g id="line2d_10">
      <g>
       <use xlink:href="#md4b8649718" x="59.455" y="236.552727" style="stroke: #000000; stroke-width: 0.8"/>
      </g>
     </g>
     <g id="text_11">
      <!-- 1.5 -->
      <g transform="translate(30.215 242.278977) scale(0.16 -0.16)">
       <defs>
        <path id="ArialMT-35" d="M 266 1200 
L 856 1250 
Q 922 819 1161 601 
Q 1400 384 1738 384 
Q 2144 384 2425 690 
Q 2706 997 2706 1503 
Q 2706 1984 2436 2262 
Q 2166 2541 1728 2541 
Q 1456 2541 1237 2417 
Q 1019 2294 894 2097 
L 366 2166 
L 809 4519 
L 3088 4519 
L 3088 3981 
L 1259 3981 
L 1013 2750 
Q 1425 3038 1878 3038 
Q 2478 3038 2890 2622 
Q 3303 2206 3303 1553 
Q 3303 931 2941 478 
Q 2500 -78 1738 -78 
Q 1113 -78 717 272 
Q 322 622 266 1200 
z
" transform="scale(0.015625)"/>
       </defs>
       <use xlink:href="#ArialMT-31"/>
       <use xlink:href="#ArialMT-2e" transform="translate(55.615234 0)"/>
       <use xlink:href="#ArialMT-35" transform="translate(83.398438 0)"/>
      </g>
     </g>
    </g>
    <g id="ytick_3">
     <g id="line2d_11">
      <g>
       <use xlink:href="#md4b8649718" x="59.455" y="164.88" style="stroke: #000000; stroke-width: 0.8"/>
      </g>
     </g>
     <g id="text_12">
      <!-- 2.0 -->
      <g transform="translate(30.215 170.60625) scale(0.16 -0.16)">
       <use xlink:href="#ArialMT-32"/>
       <use xlink:href="#ArialMT-2e" transform="translate(55.615234 0)"/>
       <use xlink:href="#ArialMT-30" transform="translate(83.398438 0)"/>
      </g>
     </g>
    </g>
    <g id="ytick_4">
     <g id="line2d_12">
      <g>
       <use xlink:href="#md4b8649718" x="59.455" y="93.207273" style="stroke: #000000; stroke-width: 0.8"/>
      </g>
     </g>
     <g id="text_13">
      <!-- 2.5 -->
      <g transform="translate(30.215 98.933523) scale(0.16 -0.16)">
       <use xlink:href="#ArialMT-32"/>
       <use xlink:href="#ArialMT-2e" transform="translate(55.615234 0)"/>
       <use xlink:href="#ArialMT-35" transform="translate(83.398438 0)"/>
      </g>
     </g>
    </g>
    <g id="ytick_5">
     <g id="line2d_13">
      <g>
       <use xlink:href="#md4b8649718" x="59.455" y="21.534545" style="stroke: #000000; stroke-width: 0.8"/>
      </g>
     </g>
     <g id="text_14">
      <!-- 3.0 -->
      <g transform="translate(30.215 27.260795) scale(0.16 -0.16)">
       <defs>
        <path id="ArialMT-33" d="M 269 1209 
L 831 1284 
Q 928 806 1161 595 
Q 1394 384 1728 384 
Q 2125 384 2398 659 
Q 2672 934 2672 1341 
Q 2672 1728 2419 1979 
Q 2166 2231 1775 2231 
Q 1616 2231 1378 2169 
L 1441 2663 
Q 1497 2656 1531 2656 
Q 1891 2656 2178 2843 
Q 2466 3031 2466 3422 
Q 2466 3731 2256 3934 
Q 2047 4138 1716 4138 
Q 1388 4138 1169 3931 
Q 950 3725 888 3313 
L 325 3413 
Q 428 3978 793 4289 
Q 1159 4600 1703 4600 
Q 2078 4600 2393 4439 
Q 2709 4278 2876 4000 
Q 3044 3722 3044 3409 
Q 3044 3113 2884 2869 
Q 2725 2625 2413 2481 
Q 2819 2388 3044 2092 
Q 3269 1797 3269 1353 
Q 3269 753 2831 336 
Q 2394 -81 1725 -81 
Q 1122 -81 723 278 
Q 325 638 269 1209 
z
" transform="scale(0.015625)"/>
       </defs>
       <use xlink:href="#ArialMT-33"/>
       <use xlink:href="#ArialMT-2e" transform="translate(55.615234 0)"/>
       <use xlink:href="#ArialMT-30" transform="translate(83.398438 0)"/>
      </g>
     </g>
    </g>
    <g id="text_15">
     <!-- Voltage (V) -->
     <g transform="translate(18.8475 204.4575) rotate(-90) scale(0.16 -0.16)">
      <defs>
       <path id="ArialMT-56" d="M 1803 0 
L 28 4581 
L 684 4581 
L 1875 1253 
Q 2019 853 2116 503 
Q 2222 878 2363 1253 
L 3600 4581 
L 4219 4581 
L 2425 0 
L 1803 0 
z
" transform="scale(0.015625)"/>
       <path id="ArialMT-6f" d="M 213 1659 
Q 213 2581 725 3025 
Q 1153 3394 1769 3394 
Q 2453 3394 2887 2945 
Q 3322 2497 3322 1706 
Q 3322 1066 3130 698 
Q 2938 331 2570 128 
Q 2203 -75 1769 -75 
Q 1072 -75 642 372 
Q 213 819 213 1659 
z
M 791 1659 
Q 791 1022 1069 705 
Q 1347 388 1769 388 
Q 2188 388 2466 706 
Q 2744 1025 2744 1678 
Q 2744 2294 2464 2611 
Q 2184 2928 1769 2928 
Q 1347 2928 1069 2612 
Q 791 2297 791 1659 
z
" transform="scale(0.015625)"/>
       <path id="ArialMT-6c" d="M 409 0 
L 409 4581 
L 972 4581 
L 972 0 
L 409 0 
z
" transform="scale(0.015625)"/>
      </defs>
      <use xlink:href="#ArialMT-56"/>
      <use xlink:href="#ArialMT-6f" transform="translate(61.199219 0)"/>
      <use xlink:href="#ArialMT-6c" transform="translate(116.814453 0)"/>
      <use xlink:href="#ArialMT-74" transform="translate(139.03125 0)"/>
      <use xlink:href="#ArialMT-61" transform="translate(166.814453 0)"/>
      <use xlink:href="#ArialMT-67" transform="translate(222.429688 0)"/>
      <use xlink:href="#ArialMT-65" transform="translate(278.044922 0)"/>
      <use xlink:href="#ArialMT-20" transform="translate(333.660156 0)"/>
      <use xlink:href="#ArialMT-28" transform="translate(361.443359 0)"/>
      <use xlink:href="#ArialMT-56" transform="translate(394.744141 0)"/>
      <use xlink:href="#ArialMT-29" transform="translate(461.443359 0)"/>
     </g>
    </g>
   </g>
   <g id="line2d_14">
    <path d="M 86.618636 126.2484 
L 88.138382 121.302982 
L 89.658127 120.371236 
L 91.177872 119.78352 
L 92.661433 119.367818 
L 95.700923 118.823105 
L 101.74372 118.04904 
L 109.342446 117.360982 
L 116.904987 116.758931 
L 169.915147 112.659251 
L 180.51718 111.670167 
L 194.158702 110.279716 
L 210.80353 108.416225 
L 232.007595 105.721331 
L 266.853181 100.689905 
L 309.261309 94.368371 
L 334.988425 91.128764 
L 353.189183 88.118509 
L 368.35045 85.509622 
L 377.432737 84.119171 
L 384.995279 83.20176 
L 395.597311 82.184007 
L 404.679598 81.409942 
L 424.400101 79.446109 
L 435.002133 78.141665 
L 448.607471 76.063156 
L 457.725942 74.328676 
L 465.288484 72.6372 
L 472.851026 70.630364 
L 478.930006 68.738204 
L 483.453058 67.1184 
L 488.012293 65.254909 
L 491.051784 63.764116 
L 494.05509 62.029636 
L 497.09458 59.879455 
L 500.13407 57.213229 
L 503.173561 53.987956 
L 506.176867 50.074625 
L 507.696612 47.824102 
L 509.216357 45.315556 
L 510.736102 42.577658 
L 512.255848 39.538735 
L 513.775593 36.170116 
L 516.778899 28.314785 
L 519.022332 21.534545 
L 519.022332 21.534545 
" clip-path="url(#pf8a13efc34)" style="fill: none; stroke: #1f77b4; stroke-opacity: 0.8; stroke-width: 2; stroke-linecap: square"/>
   </g>
   <g id="line2d_15">
    <path d="M 86.618636 25.304531 
L 88.138382 105.922015 
L 89.658127 114.494073 
L 91.177872 118.092044 
L 92.661433 120.199222 
L 94.181178 121.661345 
L 95.700923 122.765105 
L 97.220668 123.639513 
L 100.260159 125.029964 
L 104.78321 126.578095 
L 109.342446 127.810865 
L 115.385242 129.158313 
L 121.464223 130.319411 
L 129.026765 131.580851 
L 135.105745 132.469593 
L 150.230829 134.419091 
L 198.717938 139.350175 
L 257.770894 145.026655 
L 282.014449 147.649876 
L 313.820545 151.63488 
L 321.383087 152.695636 
L 357.712234 157.755731 
L 384.995279 160.952335 
L 392.55782 162.19944 
L 397.080872 163.073847 
L 407.682904 165.467716 
L 418.284936 168.076604 
L 427.403407 170.484807 
L 441.008745 174.527149 
L 447.087726 176.505316 
L 454.650267 179.171542 
L 459.173319 180.877353 
L 466.772045 183.916276 
L 477.374077 188.718349 
L 483.416873 191.771607 
L 489.45967 195.125891 
L 494.018905 197.863789 
L 498.578141 200.816705 
L 504.620937 205.102735 
L 509.180173 208.614698 
L 516.742714 214.921898 
L 524.305256 221.831149 
L 531.867798 229.170436 
L 537.946779 235.305622 
L 543.989575 241.641491 
L 551.552117 249.883855 
L 563.673894 263.257985 
L 568.23313 267.787702 
L 572.756181 271.959055 
L 578.835162 277.105156 
L 586.397703 283.111331 
L 592.4405 287.540705 
L 596.999735 290.651302 
L 603.042532 294.49296 
L 609.121512 297.990589 
L 615.164309 301.215862 
L 621.24329 304.226116 
L 629.891364 308.225455 
L 629.891364 308.225455 
" clip-path="url(#pf8a13efc34)" style="fill: none; stroke: #1f77b4; stroke-opacity: 0.8; stroke-width: 2; stroke-linecap: square"/>
   </g>
   <g id="line2d_16">
    <path d="M 86.618636 304.383796 
L 88.138382 286.45128 
L 89.658127 277.850553 
L 92.661433 262.627265 
L 94.181178 255.86136 
L 95.700923 249.683171 
L 97.220668 244.064029 
L 98.740414 238.946596 
L 101.779904 229.958836 
L 103.263465 225.945164 
L 106.302955 218.734887 
L 109.342446 212.298676 
L 113.865497 203.482931 
L 121.464223 189.392073 
L 132.066255 168.463636 
L 135.069561 162.959171 
L 138.109051 157.970749 
L 141.148542 153.598713 
L 144.151848 149.843062 
L 147.191338 146.646458 
L 150.230829 143.879891 
L 153.270319 141.471687 
L 156.273625 139.378844 
L 159.313115 137.558356 
L 162.352606 135.938553 
L 166.875657 133.774036 
L 171.434893 131.853207 
L 175.957944 130.176065 
L 182.036925 128.197898 
L 189.599466 126.09072 
L 195.642263 124.599927 
L 203.240989 122.951455 
L 215.362766 120.643593 
L 225.964798 118.808771 
L 233.52734 117.576 
L 304.702074 106.724749 
L 322.866647 103.70016 
L 338.027915 101.0196 
L 351.669437 98.482385 
L 369.834011 94.784073 
L 377.396553 93.106931 
L 386.515024 90.942415 
L 400.120362 87.30144 
L 410.722394 84.090502 
L 418.32112 81.553287 
L 424.363917 79.374436 
L 430.406713 77.023571 
L 439.525184 73.138909 
L 445.567981 70.257665 
L 451.610777 67.1184 
L 457.689758 63.620771 
L 460.729248 61.742945 
L 466.772045 57.628931 
L 471.33128 54.217309 
L 477.374077 49.171549 
L 481.933312 44.942858 
L 486.456364 40.298465 
L 491.015599 35.166698 
L 494.018905 31.439716 
L 497.058396 27.454713 
L 500.097886 23.168684 
L 501.183418 21.534545 
L 501.183418 21.534545 
" clip-path="url(#pf8a13efc34)" style="fill: none; stroke: #ff7f0e; stroke-opacity: 0.8; stroke-width: 2; stroke-linecap: square"/>
   </g>
   <g id="line2d_17">
    <path d="M 86.618636 26.021258 
L 88.138382 115.010116 
L 89.658127 122.292065 
L 91.177872 125.46 
L 92.661433 127.50984 
L 94.181178 129.029302 
L 95.700923 130.233404 
L 98.740414 132.053891 
L 101.779904 133.401338 
L 104.78321 134.476429 
L 109.342446 135.780873 
L 113.865497 136.855964 
L 119.944478 138.0744 
L 127.507019 139.407513 
L 141.148542 141.486022 
L 189.599466 147.778887 
L 206.280479 149.929069 
L 233.52734 153.713389 
L 265.333436 158.615804 
L 274.415723 160.178269 
L 292.580296 163.690233 
L 315.304106 168.692989 
L 331.948934 172.878676 
L 344.070711 176.304633 
L 354.672743 179.615913 
L 363.75503 182.783847 
L 369.797827 185.091709 
L 375.876808 187.614589 
L 383.439349 191.112218 
L 389.482146 194.237149 
L 395.561126 197.763447 
L 400.084178 200.67336 
L 403.123668 202.766204 
L 407.682904 206.163491 
L 413.7257 211.252255 
L 416.76519 214.061825 
L 421.288242 218.620211 
L 424.327732 221.917156 
L 427.367223 225.443455 
L 431.890274 231.248945 
L 434.929764 235.506305 
L 437.969255 240.165033 
L 442.492306 247.905687 
L 450.054847 261.752858 
L 453.094338 266.612269 
L 456.133828 270.84096 
L 459.137134 274.510604 
L 462.176625 277.764545 
L 465.216115 280.731796 
L 469.739166 284.7168 
L 472.778657 287.110669 
L 475.818147 289.332524 
L 480.341198 292.371447 
L 484.900434 295.12368 
L 490.94323 298.477964 
L 495.502466 300.814495 
L 504.584753 305.157862 
L 511.387422 308.225455 
L 511.387422 308.225455 
" clip-path="url(#pf8a13efc34)" style="fill: none; stroke: #ff7f0e; stroke-opacity: 0.8; stroke-width: 2; stroke-linecap: square"/>
   </g>
   <g id="line2d_18">
    <path d="M 86.618636 304.770829 
L 88.138382 287.082 
L 89.658127 279.068989 
L 92.661433 265.178815 
L 94.181178 259.029295 
L 95.700923 253.410153 
L 97.220668 248.307055 
L 98.740414 243.633993 
L 100.260159 239.347964 
L 103.263465 231.750655 
L 106.302955 225.142429 
L 109.342446 219.2796 
L 112.381936 213.990153 
L 115.385242 209.102073 
L 119.944478 202.235825 
L 125.987274 193.147724 
L 129.026765 188.273978 
L 132.066255 183.041869 
L 135.069561 177.465731 
L 141.148542 166.184444 
L 144.188032 161.052676 
L 145.671593 158.687476 
L 148.711083 154.430116 
L 151.750574 150.760473 
L 154.790064 147.592538 
L 157.79337 144.825971 
L 160.832861 142.403433 
L 163.872351 140.253251 
L 166.875657 138.375425 
L 169.915147 136.726953 
L 174.474383 134.533767 
L 178.997434 132.598604 
L 183.55667 130.907127 
L 189.599466 128.900291 
L 195.678447 127.151476 
L 201.721244 125.589011 
L 212.323276 123.195142 
L 222.925308 121.102298 
L 241.126066 117.934364 
L 275.935468 112.444233 
L 307.741564 107.240793 
L 322.902832 104.560233 
L 335.024609 102.28104 
L 345.626641 100.188196 
L 359.231979 97.263949 
L 369.834011 94.769738 
L 380.436043 92.060509 
L 392.55782 88.634553 
L 403.159852 85.2516 
L 410.722394 82.57104 
L 415.28163 80.850895 
L 421.324426 78.428356 
L 428.923152 75.102742 
L 436.485694 71.433098 
L 441.044929 69.039229 
L 447.087726 65.613273 
L 451.610777 62.846705 
L 456.170013 59.879455 
L 460.729248 56.682851 
L 466.772045 52.052793 
L 471.33128 48.268473 
L 477.374077 42.706669 
L 481.933312 38.062276 
L 486.456364 32.987847 
L 489.495854 29.318204 
L 492.49916 25.376204 
L 495.28536 21.534545 
L 495.28536 21.534545 
" clip-path="url(#pf8a13efc34)" style="fill: none; stroke: #2ca02c; stroke-opacity: 0.8; stroke-width: 2; stroke-linecap: square"/>
   </g>
   <g id="line2d_19">
    <path d="M 86.618636 26.379622 
L 88.138382 116.027869 
L 89.658127 123.266815 
L 91.177872 126.320073 
L 92.661433 128.29824 
L 94.181178 129.803367 
L 95.700923 130.993135 
L 98.740414 132.813622 
L 101.779904 134.189738 
L 104.78321 135.279164 
L 109.342446 136.612276 
L 115.385242 138.045731 
L 122.947784 139.507855 
L 130.54651 140.769295 
L 139.628797 142.131076 
L 157.79337 144.596618 
L 192.638957 149.097665 
L 201.721244 150.316102 
L 216.846327 152.408945 
L 254.731404 158.214436 
L 268.336742 160.62264 
L 283.49801 163.589891 
L 294.100042 165.797411 
L 306.221819 168.535309 
L 318.343596 171.50256 
L 333.468679 175.60224 
L 341.067405 177.867098 
L 351.669437 181.321724 
L 359.231979 184.059622 
L 366.794521 187.084211 
L 372.873502 189.750436 
L 378.916298 192.703353 
L 383.475534 195.140225 
L 386.47884 196.860371 
L 391.038075 199.641273 
L 395.597311 202.708865 
L 401.640107 207.267251 
L 406.199343 211.094575 
L 412.242139 216.871396 
L 416.801375 221.730807 
L 421.324426 227.192269 
L 424.363917 231.205942 
L 427.403407 235.606647 
L 430.406713 240.466058 
L 433.446203 245.798509 
L 438.005439 254.456575 
L 441.008745 260.11872 
L 444.048235 265.236153 
L 447.087726 269.651193 
L 450.091032 273.435513 
L 453.130522 276.746793 
L 456.170013 279.728378 
L 459.209503 282.437607 
L 462.212809 284.917484 
L 465.252299 287.23968 
L 469.811535 290.350276 
L 474.334586 293.159847 
L 478.893822 295.768735 
L 486.456364 299.739404 
L 497.058396 304.856836 
L 504.440015 308.225455 
L 504.440015 308.225455 
" clip-path="url(#pf8a13efc34)" style="fill: none; stroke: #2ca02c; stroke-opacity: 0.8; stroke-width: 2; stroke-linecap: square"/>
   </g>
   <g id="line2d_20">
    <path d="M 86.618636 304.4268 
L 88.138382 287.383025 
L 89.658127 279.628036 
L 92.661433 266.296909 
L 94.181178 260.419745 
L 95.700923 255.029956 
L 97.220668 250.113207 
L 98.740414 245.640829 
L 101.779904 237.72816 
L 103.263465 234.230531 
L 106.302955 227.880327 
L 109.342446 222.261185 
L 112.381936 217.201091 
L 115.385242 212.585367 
L 118.424732 208.313673 
L 125.987274 198.293825 
L 130.54651 192.144305 
L 133.586 187.714931 
L 136.589306 182.898524 
L 139.628797 177.695084 
L 147.191338 164.24928 
L 150.230829 159.461542 
L 153.270319 155.247185 
L 156.273625 151.591876 
L 159.313115 148.409607 
L 162.352606 145.64304 
L 165.392096 143.191833 
L 168.395402 141.027316 
L 171.434893 139.106487 
L 174.474383 137.415011 
L 177.477689 135.895549 
L 182.036925 133.860044 
L 189.599466 130.9788 
L 197.162008 128.584931 
L 203.240989 126.922124 
L 209.283785 125.402662 
L 227.448359 121.575338 
L 250.172168 117.604669 
L 262.293945 115.655171 
L 306.221819 108.502233 
L 336.50817 102.969098 
L 359.231979 98.152691 
L 369.834011 95.644145 
L 381.955788 92.447542 
L 394.041381 88.849571 
L 403.159852 85.810647 
L 412.242139 82.456364 
L 419.804681 79.360102 
L 427.367223 75.919811 
L 431.926458 73.697956 
L 437.969255 70.501353 
L 442.52849 67.935469 
L 447.051541 65.211905 
L 451.610777 62.301993 
L 456.170013 59.191396 
L 462.212809 54.747687 
L 466.772045 51.135382 
L 472.814841 45.888938 
L 477.374077 41.602909 
L 481.897128 36.958516 
L 484.936618 33.632902 
L 489.495854 28.228778 
L 494.018905 22.251273 
L 494.525487 21.534545 
L 494.525487 21.534545 
" clip-path="url(#pf8a13efc34)" style="fill: none; stroke: #d62728; stroke-opacity: 0.8; stroke-width: 2; stroke-linecap: square"/>
   </g>
   <g id="line2d_21">
    <path d="M 86.618636 26.379622 
L 88.138382 116.658589 
L 89.658127 123.825862 
L 91.177872 126.850451 
L 92.661433 128.799949 
L 94.181178 130.290742 
L 95.700923 131.466175 
L 97.220668 132.469593 
L 98.740414 133.329665 
L 101.779904 134.705782 
L 104.78321 135.823876 
L 107.8227 136.769956 
L 110.862191 137.572691 
L 118.424732 139.264167 
L 129.026765 141.156327 
L 135.105745 142.088073 
L 153.270319 144.625287 
L 212.323276 152.523622 
L 229.004289 154.974829 
L 256.251149 159.432873 
L 271.412417 162.256778 
L 297.139532 167.703905 
L 307.741564 170.212451 
L 318.343596 172.878676 
L 338.064099 178.540822 
L 350.149692 182.611833 
L 356.228673 184.848022 
L 363.791215 187.944284 
L 368.35045 189.979789 
L 372.873502 192.144305 
L 378.952482 195.326575 
L 383.475534 197.964131 
L 389.554514 201.877462 
L 394.077566 205.145738 
L 398.636801 208.743709 
L 401.640107 211.352596 
L 404.679598 214.133498 
L 409.238833 218.691884 
L 412.242139 222.003164 
L 415.28163 225.5868 
L 418.32112 229.485796 
L 421.360611 233.728822 
L 424.363917 238.416218 
L 427.403407 243.590989 
L 431.962643 252.134378 
L 434.965949 257.853862 
L 438.005439 263.128975 
L 441.044929 267.716029 
L 444.048235 271.672364 
L 447.087726 275.09832 
L 450.127216 278.122909 
L 453.166707 280.875142 
L 456.170013 283.369353 
L 459.209503 285.677215 
L 463.768739 288.802145 
L 468.29179 291.626051 
L 472.851026 294.220604 
L 478.893822 297.445876 
L 491.015599 303.394713 
L 501.509078 308.225455 
L 501.509078 308.225455 
" clip-path="url(#pf8a13efc34)" style="fill: none; stroke: #d62728; stroke-opacity: 0.8; stroke-width: 2; stroke-linecap: square"/>
   </g>
   <g id="line2d_22">
    <path d="M 86.618636 304.469804 
L 88.138382 287.569375 
L 89.658127 279.957731 
L 92.661433 266.913295 
L 94.181178 261.179476 
L 95.700923 255.918698 
L 97.220668 251.116625 
L 98.740414 246.744589 
L 100.260159 242.716582 
L 103.263465 235.577978 
L 106.302955 229.399789 
L 109.342446 223.923993 
L 112.381936 219.007244 
L 115.385242 214.5492 
L 118.424732 210.435185 
L 122.947784 204.715702 
L 132.066255 193.663767 
L 136.589306 187.58592 
L 139.628797 183.084873 
L 142.668287 178.153789 
L 150.230829 165.095018 
L 153.270319 160.335949 
L 156.273625 156.121593 
L 159.313115 152.42328 
L 162.352606 149.226676 
L 165.355912 146.402771 
L 168.395402 143.922895 
L 171.434893 141.729709 
L 174.438199 139.765876 
L 177.477689 138.017062 
L 180.51718 136.468931 
L 185.040231 134.404756 
L 189.599466 132.584269 
L 194.158702 130.950131 
L 200.201498 129.029302 
L 209.283785 126.56376 
L 218.366072 124.427913 
L 228.968104 122.220393 
L 259.254455 116.902276 
L 301.662583 109.993025 
L 322.866647 106.280378 
L 333.468679 104.287876 
L 350.113508 100.890589 
L 363.75503 97.837331 
L 375.876808 94.769738 
L 384.959094 92.261193 
L 395.561126 88.964247 
L 401.603923 86.928742 
L 412.205955 82.915069 
L 418.284936 80.377855 
L 425.847477 76.908895 
L 431.926458 73.855636 
L 437.969255 70.544356 
L 442.52849 67.878131 
L 448.571287 64.079476 
L 453.130522 61.011884 
L 460.693064 55.435745 
L 465.216115 51.82344 
L 469.775351 47.967447 
L 474.334586 43.824764 
L 480.377383 37.832924 
L 484.936618 32.90184 
L 489.45967 27.497716 
L 492.49916 23.59872 
L 494.018905 21.534545 
L 494.018905 21.534545 
" clip-path="url(#pf8a13efc34)" style="fill: none; stroke: #9467bd; stroke-opacity: 0.8; stroke-width: 2; stroke-linecap: square"/>
   </g>
   <g id="line2d_23">
    <path d="M 86.618636 25.189855 
L 88.138382 117.088625 
L 89.658127 124.284567 
L 91.177872 127.280487 
L 92.661433 129.215651 
L 94.181178 130.677775 
L 95.700923 131.867542 
L 97.220668 132.87096 
L 100.260159 134.476429 
L 103.263465 135.737869 
L 106.302955 136.784291 
L 112.381936 138.447098 
L 116.904987 139.479185 
L 125.987274 141.184996 
L 141.148542 143.521527 
L 159.313115 145.987069 
L 207.800224 152.480618 
L 247.168862 158.644473 
L 265.333436 161.998756 
L 275.935468 164.0916 
L 289.57699 167.030182 
L 297.139532 168.764662 
L 310.781054 172.090276 
L 324.422577 175.802924 
L 335.024609 178.999527 
L 341.067405 180.977695 
L 350.149692 184.231636 
L 356.228673 186.611171 
L 360.751724 188.532 
L 366.830705 191.298567 
L 372.873502 194.380495 
L 378.952482 197.820785 
L 384.995279 201.705447 
L 389.554514 204.93072 
L 394.077566 208.500022 
L 398.636801 212.427687 
L 401.640107 215.280262 
L 406.199343 219.938989 
L 409.238833 223.350611 
L 413.761884 228.984087 
L 416.801375 233.184109 
L 419.840865 237.799833 
L 422.844171 242.917265 
L 427.403407 251.302975 
L 431.926458 259.660015 
L 434.965949 264.605433 
L 438.005439 268.877127 
L 441.044929 272.561105 
L 444.048235 275.786378 
L 447.087726 278.638953 
L 450.127216 281.262175 
L 453.130522 283.656044 
L 457.689758 286.852647 
L 462.212809 289.733891 
L 466.772045 292.385782 
L 472.814841 295.639724 
L 478.893822 298.692982 
L 486.456364 302.362625 
L 497.058396 307.250705 
L 499.193276 308.225455 
L 499.193276 308.225455 
" clip-path="url(#pf8a13efc34)" style="fill: none; stroke: #9467bd; stroke-opacity: 0.8; stroke-width: 2; stroke-linecap: square"/>
   </g>
   <g id="line2d_24">
    <path d="M 86.618636 304.570145 
L 88.138382 287.626713 
L 89.658127 280.029404 
L 92.661433 267.128313 
L 94.181178 261.437498 
L 95.700923 256.262727 
L 97.220668 251.546662 
L 98.740414 247.203295 
L 100.260159 243.24696 
L 103.263465 236.223033 
L 106.302955 230.130851 
L 109.342446 224.769731 
L 112.345752 219.938989 
L 115.385242 215.581287 
L 118.424732 211.567615 
L 122.947784 206.048815 
L 129.026765 199.139564 
L 133.549816 193.878785 
L 136.589306 190.137469 
L 139.628797 186.109462 
L 142.632103 181.680087 
L 145.671593 176.849345 
L 153.234135 164.120269 
L 156.273625 159.547549 
L 159.313115 155.519542 
L 162.316421 151.978909 
L 165.355912 148.868313 
L 168.395402 146.130415 
L 171.434893 143.707876 
L 174.438199 141.586364 
L 177.477689 139.6512 
L 180.51718 137.945389 
L 183.520486 136.411593 
L 188.079721 134.361753 
L 194.122518 132.025222 
L 200.201498 129.989716 
L 204.72455 128.627935 
L 213.806836 126.234065 
L 224.408869 123.825862 
L 236.530646 121.417658 
L 248.652423 119.224473 
L 277.419029 114.451069 
L 300.142838 110.695418 
L 312.228431 108.58824 
L 331.948934 104.9616 
L 345.554272 102.238036 
L 362.235285 98.511055 
L 372.837317 95.873498 
L 383.439349 92.934916 
L 394.041381 89.637971 
L 401.603923 87.029084 
L 407.646719 84.749891 
L 413.7257 82.298684 
L 419.768496 79.618124 
L 427.367223 75.934145 
L 434.929764 71.863135 
L 440.972561 68.265164 
L 447.051541 64.380502 
L 451.574593 61.255571 
L 457.653573 56.797527 
L 463.69637 51.966785 
L 469.775351 46.734676 
L 477.337892 39.510065 
L 481.860944 34.750996 
L 484.900434 31.368044 
L 489.45967 25.892247 
L 492.752451 21.534545 
L 492.752451 21.534545 
" clip-path="url(#pf8a13efc34)" style="fill: none; stroke: #8c564b; stroke-opacity: 0.8; stroke-width: 2; stroke-linecap: square"/>
   </g>
   <g id="line2d_25">
    <path d="M 86.618636 26.522967 
L 88.138382 117.489993 
L 89.658127 124.6716 
L 91.177872 127.66752 
L 92.661433 129.574015 
L 94.181178 131.064807 
L 95.700923 132.24024 
L 97.220668 133.257993 
L 98.740414 134.1324 
L 101.779904 135.55152 
L 104.78321 136.712618 
L 109.342446 138.103069 
L 113.865497 139.264167 
L 121.464223 140.840967 
L 138.109051 143.564531 
L 160.832861 146.675127 
L 172.954638 148.266262 
L 197.198192 151.577542 
L 207.800224 153.111338 
L 224.445053 155.619884 
L 257.770894 161.382371 
L 278.974958 165.682735 
L 298.659277 170.169447 
L 313.78436 174.068444 
L 324.386393 177.078698 
L 333.468679 179.916938 
L 341.031221 182.482822 
L 350.113508 185.908778 
L 357.712234 189.091047 
L 363.75503 191.929287 
L 369.797827 195.068553 
L 374.357062 197.648771 
L 378.916298 200.501345 
L 384.959094 204.715702 
L 389.482146 208.242 
L 394.041381 212.140996 
L 398.600617 216.427025 
L 404.643413 222.949244 
L 407.682904 226.575884 
L 412.205955 232.653731 
L 415.245445 237.212116 
L 418.284936 242.229207 
L 428.850783 261.322822 
L 431.890274 265.95288 
L 434.929764 269.937884 
L 437.93307 273.406844 
L 440.972561 276.445767 
L 444.012051 279.183665 
L 448.535102 282.82464 
L 453.094338 286.021244 
L 457.617389 288.902487 
L 463.69637 292.357113 
L 471.258912 296.313447 
L 480.341198 300.757156 
L 487.90374 304.312124 
L 496.587998 308.225455 
L 496.587998 308.225455 
" clip-path="url(#pf8a13efc34)" style="fill: none; stroke: #8c564b; stroke-opacity: 0.8; stroke-width: 2; stroke-linecap: square"/>
   </g>
   <g id="line2d_26">
    <path d="M 86.618636 304.58448 
L 88.138382 287.583709 
L 89.658127 280.000735 
L 92.661433 267.128313 
L 94.181178 261.480502 
L 95.700923 256.320065 
L 97.220668 251.618335 
L 98.740414 247.34664 
L 101.74372 239.806669 
L 104.78321 233.341789 
L 107.8227 227.708313 
L 110.862191 222.691222 
L 113.865497 218.161505 
L 116.904987 214.047491 
L 119.944478 210.277505 
L 122.947784 206.722538 
L 138.109051 189.721767 
L 141.112357 185.822771 
L 144.151848 181.536742 
L 147.191338 176.820676 
L 156.273625 161.998756 
L 159.313115 157.741396 
L 162.316421 153.957076 
L 165.355912 150.645796 
L 168.395402 147.735884 
L 171.398708 145.141331 
L 174.438199 142.862138 
L 177.477689 140.812298 
L 180.51718 138.977476 
L 183.520486 137.343338 
L 188.079721 135.207491 
L 192.602772 133.315331 
L 198.681753 131.122145 
L 204.72455 129.201316 
L 213.806836 126.735775 
L 222.889123 124.599927 
L 230.487849 122.980124 
L 236.530646 121.776022 
L 251.691913 119.009455 
L 271.376232 115.698175 
L 294.063857 111.956858 
L 318.307412 107.742502 
L 339.511476 103.657156 
L 354.636559 100.417549 
L 369.797827 96.733571 
L 377.360368 94.698065 
L 386.442655 92.017505 
L 392.521636 90.082342 
L 400.084178 87.430451 
L 404.607229 85.738975 
L 412.205955 82.642713 
L 418.248751 79.919149 
L 425.811293 76.177833 
L 431.890274 72.880887 
L 437.93307 69.282916 
L 442.492306 66.401673 
L 447.015357 63.33408 
L 453.094338 58.976378 
L 460.656879 52.998873 
L 463.69637 50.461658 
L 471.258912 43.652749 
L 475.781963 39.194705 
L 480.341198 34.435636 
L 484.86425 29.289535 
L 489.423485 23.656058 
L 491.051784 21.534545 
L 491.051784 21.534545 
" clip-path="url(#pf8a13efc34)" style="fill: none; stroke: #e377c2; stroke-opacity: 0.8; stroke-width: 2; stroke-linecap: square"/>
   </g>
   <g id="line2d_27">
    <path d="M 86.618636 25.64856 
L 88.138382 117.862691 
L 89.658127 125.044298 
L 91.177872 128.040218 
L 92.661433 129.946713 
L 94.181178 131.423171 
L 95.700923 132.612938 
L 97.220668 133.630691 
L 100.260159 135.279164 
L 103.263465 136.554938 
L 106.302955 137.615695 
L 110.862191 138.934473 
L 115.385242 140.052567 
L 124.467529 141.844385 
L 136.589306 143.822553 
L 163.836167 147.578204 
L 169.915147 148.366604 
L 183.520486 150.187091 
L 212.287091 154.358444 
L 228.968104 156.981665 
L 248.652423 160.421956 
L 265.297251 163.661564 
L 281.94208 167.216531 
L 303.146144 172.319629 
L 312.228431 174.742167 
L 327.389699 179.257549 
L 334.95224 181.780429 
L 340.995037 183.944945 
L 348.593763 186.912196 
L 357.676049 190.940204 
L 363.718846 193.964793 
L 368.278081 196.473338 
L 374.320878 200.157316 
L 378.880114 203.239244 
L 383.403165 206.607862 
L 387.9624 210.334844 
L 392.485452 214.448858 
L 395.524942 217.430444 
L 398.564432 220.627047 
L 403.087484 225.887825 
L 406.126974 229.786822 
L 409.166464 234.044182 
L 412.16977 238.731578 
L 415.209261 243.863345 
L 424.291548 260.147389 
L 427.331038 264.834785 
L 430.334344 268.905796 
L 433.373835 272.41776 
L 436.413325 275.514022 
L 439.416631 278.280589 
L 442.456121 280.789135 
L 447.015357 284.143418 
L 451.538408 287.139338 
L 457.617389 290.679971 
L 460.620695 292.342778 
L 468.183237 296.241775 
L 475.781963 299.925753 
L 487.867556 305.53056 
L 493.910352 308.225455 
L 493.910352 308.225455 
" clip-path="url(#pf8a13efc34)" style="fill: none; stroke: #e377c2; stroke-opacity: 0.8; stroke-width: 2; stroke-linecap: square"/>
   </g>
   <g id="line2d_28">
    <path d="M 86.618636 304.713491 
L 88.138382 287.526371 
L 89.658127 279.900393 
L 92.661433 266.984967 
L 94.181178 261.351491 
L 95.700923 256.205389 
L 97.220668 251.517993 
L 98.740414 247.246298 
L 101.74372 239.734996 
L 104.78321 233.327455 
L 107.8227 227.722647 
L 110.862191 222.74856 
L 113.865497 218.276182 
L 116.904987 214.219505 
L 121.428038 208.71504 
L 125.987274 203.712284 
L 136.589306 192.330655 
L 139.628797 188.747018 
L 142.632103 184.876691 
L 145.671593 180.604996 
L 148.711083 175.888931 
L 157.79337 161.353702 
L 160.796676 157.211018 
L 163.836167 153.52704 
L 166.875657 150.301767 
L 169.915147 147.434858 
L 172.918454 144.897644 
L 175.957944 142.64712 
L 180.51718 139.722873 
L 183.520486 138.017062 
L 186.559976 136.483265 
L 191.083027 134.462095 
L 195.642263 132.670276 
L 201.685059 130.563098 
L 207.76404 128.728276 
L 215.326582 126.692771 
L 228.968104 123.56784 
L 238.050391 121.733018 
L 254.695219 118.694095 
L 268.336742 116.357564 
L 298.623093 111.283135 
L 313.748176 108.616909 
L 328.909444 105.793004 
L 350.113508 101.406633 
L 365.238591 97.808662 
L 374.320878 95.414793 
L 383.403165 92.777236 
L 395.524942 88.777898 
L 401.603923 86.527375 
L 410.68621 82.814727 
L 416.729006 80.062495 
L 422.771802 77.037905 
L 427.331038 74.601033 
L 431.854089 72.00648 
L 439.452815 67.290415 
L 443.975867 64.222822 
L 450.054847 59.86512 
L 457.617389 53.916284 
L 462.14044 50.074625 
L 468.219421 44.613164 
L 472.742472 40.226793 
L 477.301708 35.553731 
L 480.341198 32.242451 
L 486.383995 25.060844 
L 489.13401 21.534545 
L 489.13401 21.534545 
" clip-path="url(#pf8a13efc34)" style="fill: none; stroke: #7f7f7f; stroke-opacity: 0.8; stroke-width: 2; stroke-linecap: square"/>
   </g>
   <g id="line2d_29">
    <path d="M 86.618636 25.361869 
L 88.138382 118.163716 
L 89.658127 125.359658 
L 91.177872 128.355578 
L 92.661433 130.276407 
L 94.181178 131.738531 
L 95.700923 132.956967 
L 98.740414 134.849127 
L 101.74372 136.296916 
L 104.78321 137.458015 
L 109.342446 138.891469 
L 115.385242 140.382262 
L 121.428038 141.643702 
L 125.987274 142.475105 
L 136.589306 144.180916 
L 148.711083 145.915396 
L 180.480995 150.201425 
L 188.079721 151.247847 
L 206.244295 153.914073 
L 238.050391 159.117513 
L 248.616239 161.052676 
L 271.340048 165.654065 
L 278.90259 167.302538 
L 298.586908 172.047273 
L 307.669195 174.455476 
L 319.790972 177.981775 
L 331.91275 181.966778 
L 337.955546 184.145629 
L 345.518088 187.141549 
L 351.597069 189.779105 
L 357.639865 192.689018 
L 363.682661 195.914291 
L 368.241897 198.609185 
L 372.764948 201.533433 
L 377.324184 204.744371 
L 381.88342 208.285004 
L 387.926216 213.560116 
L 392.449267 218.01816 
L 395.488758 221.257767 
L 398.528248 224.755396 
L 401.567738 228.539716 
L 404.571044 232.696735 
L 407.610535 237.226451 
L 410.650025 242.200538 
L 419.732312 258.412909 
L 422.735618 263.243651 
L 425.775109 267.443673 
L 428.814599 271.084647 
L 431.817905 274.281251 
L 434.857395 277.105156 
L 437.896886 279.656705 
L 440.936376 282.007571 
L 443.939682 284.129084 
L 448.498918 287.053331 
L 453.021969 289.719556 
L 459.10095 293.002167 
L 469.702982 298.291615 
L 475.745778 301.158524 
L 487.867556 306.677324 
L 491.377443 308.225455 
L 491.377443 308.225455 
" clip-path="url(#pf8a13efc34)" style="fill: none; stroke: #7f7f7f; stroke-opacity: 0.8; stroke-width: 2; stroke-linecap: square"/>
   </g>
   <g id="line2d_30">
    <path d="M 86.618636 305.186531 
L 88.138382 287.469033 
L 89.658127 279.757047 
L 92.661433 266.784284 
L 94.181178 261.136473 
L 95.700923 255.990371 
L 97.220668 251.28864 
L 98.740414 247.03128 
L 100.260159 243.117949 
L 103.263465 236.237367 
L 106.302955 230.288531 
L 109.342446 225.042087 
L 112.345752 220.354691 
L 115.385242 216.126 
L 118.424732 212.298676 
L 122.947784 207.052233 
L 127.507019 202.207156 
L 135.069561 194.323156 
L 138.109051 191.011876 
L 142.668287 185.521745 
L 145.671593 181.407731 
L 148.711083 176.86368 
L 157.79337 162.371455 
L 160.832861 158.142764 
L 163.836167 154.387113 
L 166.875657 151.061498 
L 169.915147 148.137251 
L 172.954638 145.528364 
L 175.957944 143.206167 
L 178.997434 141.141993 
L 183.55667 138.432764 
L 186.559976 136.855964 
L 192.638957 134.161069 
L 197.162008 132.383585 
L 206.244295 129.387665 
L 213.843021 127.280487 
L 221.405563 125.402662 
L 233.52734 122.765105 
L 244.129372 120.700931 
L 262.293945 117.461324 
L 313.78436 108.616909 
L 325.869953 106.352051 
L 334.988425 104.560233 
L 344.070711 102.653738 
L 353.152998 100.618233 
L 360.71554 98.81208 
L 369.797827 96.475549 
L 378.880114 93.895331 
L 386.442655 91.530131 
L 394.005197 88.935578 
L 400.084178 86.67072 
L 407.646719 83.560124 
L 412.205955 81.524618 
L 421.288242 77.023571 
L 427.331038 73.683622 
L 433.373835 70.028313 
L 439.452815 66.086313 
L 443.975867 62.889709 
L 450.054847 58.359993 
L 456.097644 53.500582 
L 460.656879 49.601585 
L 466.699676 44.082785 
L 471.222727 39.653411 
L 474.262218 36.52848 
L 478.821453 31.597396 
L 483.344504 26.293615 
L 487.107683 21.534545 
L 487.107683 21.534545 
" clip-path="url(#pf8a13efc34)" style="fill: none; stroke: #bcbd22; stroke-opacity: 0.8; stroke-width: 2; stroke-linecap: square"/>
   </g>
   <g id="line2d_31">
    <path d="M 86.618636 26.580305 
L 88.138382 118.450407 
L 89.658127 125.660684 
L 91.177872 128.642269 
L 92.661433 130.591767 
L 94.181178 132.039556 
L 95.700923 133.243658 
L 98.740414 135.150153 
L 101.74372 136.597942 
L 104.78321 137.787709 
L 109.342446 139.206829 
L 113.865497 140.396596 
L 119.944478 141.686705 
L 125.987274 142.8048 
L 138.109051 144.754298 
L 163.836167 148.294931 
L 185.040231 151.204844 
L 224.408869 157.239687 
L 241.053697 160.178269 
L 251.655729 162.185105 
L 266.816997 165.295702 
L 275.899284 167.273869 
L 288.021061 170.126444 
L 298.623093 172.821338 
L 307.70538 175.301215 
L 319.827157 178.942189 
L 330.429189 182.511491 
L 339.511476 185.951782 
L 350.113508 190.567505 
L 356.156304 193.57776 
L 360.71554 196.057636 
L 366.758336 199.698611 
L 371.317572 202.751869 
L 375.840623 206.106153 
L 380.399859 209.775796 
L 383.403165 212.427687 
L 387.9624 216.785389 
L 391.001891 219.924655 
L 395.524942 225.128095 
L 398.564432 228.955418 
L 401.603923 233.141105 
L 404.607229 237.742495 
L 407.646719 242.759585 
L 412.205955 250.887273 
L 415.209261 256.277062 
L 418.248751 261.265484 
L 421.288242 265.694858 
L 424.291548 269.522182 
L 427.331038 272.862131 
L 430.370529 275.786378 
L 433.373835 278.423935 
L 436.413325 280.817804 
L 440.972561 284.043076 
L 445.495612 286.92432 
L 450.054847 289.561876 
L 456.097644 292.830153 
L 465.179931 297.374204 
L 475.781963 302.37696 
L 488.916903 308.225455 
L 488.916903 308.225455 
" clip-path="url(#pf8a13efc34)" style="fill: none; stroke: #bcbd22; stroke-opacity: 0.8; stroke-width: 2; stroke-linecap: square"/>
   </g>
   <g id="line2d_32">
    <path d="M 86.618636 304.699156 
L 88.138382 287.39736 
L 89.658127 279.628036 
L 92.661433 266.5836 
L 94.181178 260.892785 
L 95.700923 255.718015 
L 97.220668 251.016284 
L 98.740414 246.730255 
L 101.74372 239.247622 
L 104.78321 232.883084 
L 107.8227 227.32128 
L 110.862191 222.404531 
L 113.865497 217.989491 
L 116.904987 214.004487 
L 119.944478 210.349178 
L 124.467529 205.317753 
L 132.030071 197.548429 
L 136.589306 192.818029 
L 139.628797 189.449411 
L 142.632103 185.794102 
L 145.671593 181.780429 
L 148.711083 177.351055 
L 151.750574 172.534647 
L 154.75388 167.603564 
L 157.79337 162.930502 
L 160.832861 158.687476 
L 163.836167 154.903156 
L 166.875657 151.534538 
L 169.915147 148.552953 
L 172.918454 145.901062 
L 175.957944 143.564531 
L 178.997434 141.443018 
L 183.520486 138.70512 
L 188.079721 136.368589 
L 192.602772 134.361753 
L 197.162008 132.584269 
L 201.685059 130.993135 
L 207.76404 129.100975 
L 213.806836 127.423833 
L 221.369378 125.531673 
L 235.010901 122.550087 
L 250.135984 119.654509 
L 272.859793 115.68384 
L 306.185634 109.921353 
L 322.830463 106.839425 
L 351.597069 100.775913 
L 362.199101 98.195695 
L 378.843929 93.536967 
L 384.92291 91.616138 
L 390.965706 89.537629 
L 398.528248 86.713724 
L 406.126974 83.545789 
L 413.689516 80.019491 
L 416.692822 78.500029 
L 422.771802 75.246087 
L 427.294854 72.608531 
L 433.373835 68.824211 
L 439.416631 64.710196 
L 445.495612 60.280822 
L 453.058153 54.260313 
L 457.581205 50.40432 
L 463.660185 44.899855 
L 468.183237 40.513484 
L 472.742472 35.854756 
L 475.781963 32.58648 
L 481.824759 25.519549 
L 484.972803 21.534545 
L 484.972803 21.534545 
" clip-path="url(#pf8a13efc34)" style="fill: none; stroke: #17becf; stroke-opacity: 0.8; stroke-width: 2; stroke-linecap: square"/>
   </g>
   <g id="patch_3">
    <path d="M 59.455 322.56 
L 59.455 7.2 
" style="fill: none; stroke: #000000; stroke-width: 0.8; stroke-linejoin: miter; stroke-linecap: square"/>
   </g>
   <g id="patch_4">
    <path d="M 657.055 322.56 
L 657.055 7.2 
" style="fill: none; stroke: #000000; stroke-width: 0.8; stroke-linejoin: miter; stroke-linecap: square"/>
   </g>
   <g id="patch_5">
    <path d="M 59.455 322.56 
L 657.055 322.56 
" style="fill: none; stroke: #000000; stroke-width: 0.8; stroke-linejoin: miter; stroke-linecap: square"/>
   </g>
   <g id="patch_6">
    <path d="M 59.455 7.2 
L 657.055 7.2 
" style="fill: none; stroke: #000000; stroke-width: 0.8; stroke-linejoin: miter; stroke-linecap: square"/>
   </g>
   <g id="legend_1">
    <g id="text_16">
     <!-- Cycle -->
     <g transform="translate(591.35375 33.2475) scale(0.16 -0.16)">
      <use xlink:href="#ArialMT-43"/>
      <use xlink:href="#ArialMT-79" transform="translate(72.216797 0)"/>
      <use xlink:href="#ArialMT-63" transform="translate(122.216797 0)"/>
      <use xlink:href="#ArialMT-6c" transform="translate(172.216797 0)"/>
      <use xlink:href="#ArialMT-65" transform="translate(194.433594 0)"/>
     </g>
    </g>
    <g id="line2d_33">
     <path d="M 580.06 50.4675 
L 596.06 50.4675 
L 612.06 50.4675 
" style="fill: none; stroke: #1f77b4; stroke-opacity: 0.8; stroke-width: 2; stroke-linecap: square"/>
    </g>
    <g id="text_17">
     <!-- 1 -->
     <g transform="translate(624.86 56.0675) scale(0.16 -0.16)">
      <use xlink:href="#ArialMT-31"/>
     </g>
    </g>
    <g id="line2d_34">
     <path d="M 580.06 73.1 
L 596.06 73.1 
L 612.06 73.1 
" style="fill: none; stroke: #ff7f0e; stroke-opacity: 0.8; stroke-width: 2; stroke-linecap: square"/>
    </g>
    <g id="text_18">
     <!-- 2 -->
     <g transform="translate(624.86 78.7) scale(0.16 -0.16)">
      <use xlink:href="#ArialMT-32"/>
     </g>
    </g>
    <g id="line2d_35">
     <path d="M 580.06 95.7325 
L 596.06 95.7325 
L 612.06 95.7325 
" style="fill: none; stroke: #2ca02c; stroke-opacity: 0.8; stroke-width: 2; stroke-linecap: square"/>
    </g>
    <g id="text_19">
     <!-- 3 -->
     <g transform="translate(624.86 101.3325) scale(0.16 -0.16)">
      <use xlink:href="#ArialMT-33"/>
     </g>
    </g>
    <g id="line2d_36">
     <path d="M 580.06 118.365 
L 596.06 118.365 
L 612.06 118.365 
" style="fill: none; stroke: #d62728; stroke-opacity: 0.8; stroke-width: 2; stroke-linecap: square"/>
    </g>
    <g id="text_20">
     <!-- 4 -->
     <g transform="translate(624.86 123.965) scale(0.16 -0.16)">
      <use xlink:href="#ArialMT-34"/>
     </g>
    </g>
    <g id="line2d_37">
     <path d="M 580.06 140.9975 
L 596.06 140.9975 
L 612.06 140.9975 
" style="fill: none; stroke: #9467bd; stroke-opacity: 0.8; stroke-width: 2; stroke-linecap: square"/>
    </g>
    <g id="text_21">
     <!-- 5 -->
     <g transform="translate(624.86 146.5975) scale(0.16 -0.16)">
      <use xlink:href="#ArialMT-35"/>
     </g>
    </g>
    <g id="line2d_38">
     <path d="M 580.06 163.63 
L 596.06 163.63 
L 612.06 163.63 
" style="fill: none; stroke: #8c564b; stroke-opacity: 0.8; stroke-width: 2; stroke-linecap: square"/>
    </g>
    <g id="text_22">
     <!-- 6 -->
     <g transform="translate(624.86 169.23) scale(0.16 -0.16)">
      <use xlink:href="#ArialMT-36"/>
     </g>
    </g>
    <g id="line2d_39">
     <path d="M 580.06 186.2625 
L 596.06 186.2625 
L 612.06 186.2625 
" style="fill: none; stroke: #e377c2; stroke-opacity: 0.8; stroke-width: 2; stroke-linecap: square"/>
    </g>
    <g id="text_23">
     <!-- 7 -->
     <g transform="translate(624.86 191.8625) scale(0.16 -0.16)">
      <defs>
       <path id="ArialMT-37" d="M 303 3981 
L 303 4522 
L 3269 4522 
L 3269 4084 
Q 2831 3619 2401 2847 
Q 1972 2075 1738 1259 
Q 1569 684 1522 0 
L 944 0 
Q 953 541 1156 1306 
Q 1359 2072 1739 2783 
Q 2119 3494 2547 3981 
L 303 3981 
z
" transform="scale(0.015625)"/>
      </defs>
      <use xlink:href="#ArialMT-37"/>
     </g>
    </g>
    <g id="line2d_40">
     <path d="M 580.06 208.895 
L 596.06 208.895 
L 612.06 208.895 
" style="fill: none; stroke: #7f7f7f; stroke-opacity: 0.8; stroke-width: 2; stroke-linecap: square"/>
    </g>
    <g id="text_24">
     <!-- 8 -->
     <g transform="translate(624.86 214.495) scale(0.16 -0.16)">
      <use xlink:href="#ArialMT-38"/>
     </g>
    </g>
    <g id="line2d_41">
     <path d="M 580.06 231.5275 
L 596.06 231.5275 
L 612.06 231.5275 
" style="fill: none; stroke: #bcbd22; stroke-opacity: 0.8; stroke-width: 2; stroke-linecap: square"/>
    </g>
    <g id="text_25">
     <!-- 9 -->
     <g transform="translate(624.86 237.1275) scale(0.16 -0.16)">
      <defs>
       <path id="ArialMT-39" d="M 350 1059 
L 891 1109 
Q 959 728 1153 556 
Q 1347 384 1650 384 
Q 1909 384 2104 503 
Q 2300 622 2425 820 
Q 2550 1019 2634 1356 
Q 2719 1694 2719 2044 
Q 2719 2081 2716 2156 
Q 2547 1888 2255 1720 
Q 1963 1553 1622 1553 
Q 1053 1553 659 1965 
Q 266 2378 266 3053 
Q 266 3750 677 4175 
Q 1088 4600 1706 4600 
Q 2153 4600 2523 4359 
Q 2894 4119 3086 3673 
Q 3278 3228 3278 2384 
Q 3278 1506 3087 986 
Q 2897 466 2520 194 
Q 2144 -78 1638 -78 
Q 1100 -78 759 220 
Q 419 519 350 1059 
z
M 2653 3081 
Q 2653 3566 2395 3850 
Q 2138 4134 1775 4134 
Q 1400 4134 1122 3828 
Q 844 3522 844 3034 
Q 844 2597 1108 2323 
Q 1372 2050 1759 2050 
Q 2150 2050 2401 2323 
Q 2653 2597 2653 3081 
z
" transform="scale(0.015625)"/>
      </defs>
      <use xlink:href="#ArialMT-39"/>
     </g>
    </g>
    <g id="line2d_42">
     <path d="M 580.06 254.16 
L 596.06 254.16 
L 612.06 254.16 
" style="fill: none; stroke: #17becf; stroke-opacity: 0.8; stroke-width: 2; stroke-linecap: square"/>
    </g>
    <g id="text_26">
     <!-- 10 -->
     <g transform="translate(624.86 259.76) scale(0.16 -0.16)">
      <use xlink:href="#ArialMT-31"/>
      <use xlink:href="#ArialMT-30" transform="translate(55.615234 0)"/>
     </g>
    </g>
   </g>
  </g>
 </g>
 <defs>
  <clipPath id="pf8a13efc34">
   <rect x="59.455" y="7.2" width="597.6" height="315.36"/>
  </clipPath>
 </defs>
</svg>
